<svg id="TTC_Logo" data-name="TTC Logo" xmlns="http://www.w3.org/2000/svg" viewBox="0 0 294.433 52.563">
  <defs>
    <style>
      .cls-1 {
        fill: #fff;
      }
    </style>
  </defs>
  <path id="Path_1" data-name="Path 1" class="cls-1" d="M114.324,16.972C65.486,14.659,38.162,22.71,20.993,29.046c-.387.142-.368-.921-.368-.921C51.383,14.355,99.035-.8,152.378.032c48.1.741,84.373,12.024,116.267,23.586.048.017.018,1.069-.419,1-12.746-2.18-52.041-9.712-78.851,8.93C189.231,33.643,161.829,19.221,114.324,16.972Z" transform="translate(6.065 0)"/>
  <path id="Path_2" data-name="Path 2" class="cls-1" d="M5.518,42.431H3.663V35.879H0V34.457H9.2v1.422H5.518Z" transform="translate(0 10.131)"/>
  <path id="Path_3" data-name="Path 3" class="cls-1" d="M15.612,35.832c.573,0,.835.107.835.635v.959c0,.521-.261.63-.835.63H11.439V35.832Zm-6,6.6H11.44V39.418H13.2l3.214,3.012h2.659L15.4,39.418h1.051c1.222,0,1.794-.431,1.794-1.545V36c0-1.112-.572-1.545-1.794-1.545H9.617Z" transform="translate(2.828 10.132)"/>
  <path id="Path_4" data-name="Path 4" class="cls-1" d="M19.949,34.457H21.8v7.974H19.949Z" transform="translate(5.866 10.131)"/>
  <path id="Path_5" data-name="Path 5" class="cls-1" d="M27.145,40.936V35.879h3.292c1.746,0,2.627.867,2.627,2.49,0,1.979-1.175,2.567-3.524,2.567Zm-1.857,1.495h4.653a6.288,6.288,0,0,0,3.275-.617A3.86,3.86,0,0,0,34.98,38.4c0-2.477-1.577-3.942-4.561-3.942H25.288Z" transform="translate(7.436 10.131)"/>
  <path id="Path_6" data-name="Path 6" class="cls-1" d="M36.158,34.457H44.32v1.357H38.014v1.778h3.679v1.363H38.014v1.981H44.4v1.495H36.159V34.457Z" transform="translate(10.632 10.131)"/>
  <path id="Path_7" data-name="Path 7" class="cls-1" d="M45.918,34.457h1.268l5.611,4.7a6.689,6.689,0,0,1,.911.867c-.045-.669-.076-1.131-.076-1.379V34.458H55.3v7.974H54.034L48.176,37.5a6.006,6.006,0,0,1-.665-.648c.062.621.079,1.038.079,1.267v4.312H45.919V34.457Z" transform="translate(13.502 10.131)"/>
  <path id="Path_8" data-name="Path 8" class="cls-1" d="M61.183,42.431H59.328V35.879H55.665V34.457h9.2v1.422H61.183Z" transform="translate(16.368 10.131)"/>
  <path id="Path_9" data-name="Path 9" class="cls-1" d="M74.778,42.431H72.922V35.879H69.259V34.457h9.2v1.422H74.778v6.552Z" transform="translate(20.365 10.131)"/>
  <path id="Path_10" data-name="Path 10" class="cls-1" d="M78.875,34.457h8.163v1.357H80.731v1.778H84.41v1.363H80.731v1.981h6.384v1.495H78.875Z" transform="translate(23.192 10.131)"/>
  <path id="Path_11" data-name="Path 11" class="cls-1" d="M90.371,35.879v5.057h5.008V39.217l1.854.384v.943c0,1.5-.48,1.885-1.979,1.885H90.493c-1.5,0-1.979-.386-1.979-1.885v-4.2c0-1.5.479-1.885,1.979-1.885h4.762c1.5,0,1.979.386,1.979,1.885V37.1l-1.854.29V35.879Z" transform="translate(26.027 10.132)"/>
  <path id="Path_12" data-name="Path 12" class="cls-1" d="M98.967,34.457h1.854v3.09h5.8v-3.09h1.87v7.974h-1.87V39h-5.8v3.428H98.967Z" transform="translate(29.1 10.131)"/>
  <path id="Path_13" data-name="Path 13" class="cls-1" d="M110.219,34.457h1.268l5.611,4.7a6.766,6.766,0,0,1,.911.867c-.045-.669-.078-1.131-.078-1.379V34.458H119.6v7.974h-1.269L112.476,37.5a5.788,5.788,0,0,1-.665-.648c.062.621.078,1.038.078,1.267v4.312h-1.671V34.457Z" transform="translate(32.409 10.131)"/>
  <path id="Path_14" data-name="Path 14" class="cls-1" d="M121.362,34.457h1.853v7.974h-1.853Z" transform="translate(35.685 10.131)"/>
  <path id="Path_15" data-name="Path 15" class="cls-1" d="M128.422,35.879v5.057h5.005V39.217l1.854.384v.943c0,1.5-.479,1.885-1.979,1.885h-4.759c-1.5,0-1.976-.386-1.976-1.885v-4.2c0-1.5.478-1.885,1.976-1.885H133.3c1.5,0,1.979.386,1.979,1.885V37.1l-1.854.29V35.879Z" transform="translate(37.216 10.132)"/>
  <path id="Path_16" data-name="Path 16" class="cls-1" d="M139.184,39.247,140.961,36l1.716,3.245Zm-3.573,3.183h1.856l.928-1.743h5.055l.958,1.743h2.086l-4.573-7.974h-1.8Z" transform="translate(39.875 10.131)"/>
  <path id="Path_17" data-name="Path 17" class="cls-1" d="M146.758,34.457h1.854v6.479h5.981v1.495h-7.835Z" transform="translate(43.153 10.131)"/>
  <path id="Path_18" data-name="Path 18" class="cls-1" d="M162.767,35.879v5.057h5.009V39.217l1.853.384v.943c0,1.5-.478,1.885-1.977,1.885H162.89c-1.5,0-1.976-.386-1.976-1.885v-4.2c0-1.5.476-1.885,1.976-1.885h4.762c1.5,0,1.977.386,1.977,1.885V37.1l-1.853.29V35.879Z" transform="translate(47.315 10.132)"/>
  <path id="Path_19" data-name="Path 19" class="cls-1" d="M173.089,40.936V35.879h6.121v5.057Zm-1.854-4.594v4.2c0,1.5.478,1.885,1.976,1.885h5.875c1.5,0,1.979-.386,1.979-1.885v-4.2c0-1.5-.478-1.885-1.979-1.885h-5.875C171.713,34.457,171.235,34.843,171.235,36.342Z" transform="translate(50.35 10.131)"/>
  <path id="Path_20" data-name="Path 20" class="cls-1" d="M182.605,34.457h1.856v6.479h5.984v1.495h-7.838V34.457Z" transform="translate(53.693 10.131)"/>
  <path id="Path_21" data-name="Path 21" class="cls-1" d="M191.516,34.457h1.854v6.479h5.982v1.495h-7.837Z" transform="translate(56.313 10.131)"/>
  <path id="Path_22" data-name="Path 22" class="cls-1" d="M200.428,34.457h8.161v1.357h-6.306v1.778h3.679v1.363h-3.679v1.981h6.384v1.495h-8.239Z" transform="translate(58.934 10.131)"/>
  <path id="Path_23" data-name="Path 23" class="cls-1" d="M211.922,35.879v5.057h5.8V39.156h-3.031V37.792h4.84v2.752c0,1.5-.478,1.885-1.98,1.885h-5.5c-1.5,0-1.979-.386-1.979-1.885v-4.2c0-1.5.48-1.885,1.979-1.885h5.5c1.454,0,1.98.37,1.98,1.808v.185l-1.809.326v-.9h-5.8Z" transform="translate(61.768 10.131)"/>
  <path id="Path_24" data-name="Path 24" class="cls-1" d="M221.165,34.457h8.162v1.357h-6.308v1.778h3.68v1.363h-3.68v1.981H229.4v1.495h-8.238V34.457Z" transform="translate(65.031 10.131)"/>
</svg>
